<svg xmlns="http://www.w3.org/2000/svg" viewBox="0 0 512 512" role="img" aria-label="Agrovet">
  <defs>
    <radialGradient id="bg" cx="35%" cy="30%" r="80%">
      <stop offset="0%" stop-color="#7b2cbf"/>
      <stop offset="100%" stop-color="#5b0f73"/>
    </radialGradient>
  </defs>
  <circle cx="256" cy="256" r="248" fill="url(#bg)"/>
  <g fill="#fff">
    <path d="M160 146c16 3 26 13 29 28-1 13-8 24-17 35-8 10-15 22-16 36-1 13 4 26 11 39 10 18 22 36 31 58 6 15 7 29 2 42-26-16-43-39-54-66-9-23-16-48-15-73 1-35 11-74 29-99z"/>
    <path d="M223 128c17 3 28 15 31 30-1 17-9 31-19 44-10 13-18 27-18 42-1 14 5 28 13 42 11 19 24 40 33 64 6 16 6 30 2 44-27-15-46-37-58-64-11-25-18-52-16-80 2-39 14-78 32-122z"/>
    <path d="M289 140c17 3 28 15 31 30-1 17-8 31-18 44-10 13-18 27-19 42-1 14 5 28 13 42 11 19 24 40 33 64 6 16 6 30 2 44-27-15-46-37-58-64-11-25-18-52-16-80 2-39 14-78 32-122z"/>
    <path d="M349 150c16 3 26 13 29 28-1 13-8 24-17 35-8 10-15 22-16 36-1 13 4 26 11 39 10 18 22 36 31 58 6 15 7 29 2 42-26-16-43-39-54-66-9-23-16-48-15-73 1-35 11-74 29-99z"/>
    <path d="M164 348h184v30c0 27-22 49-49 49H213c-27 0-49-22-49-49v-30z"/>
    <text x="256" y="385" text-anchor="middle" font-family="Arial, Helvetica, sans-serif" font-size="64" font-weight="700" fill="#fff">AgroVet</text>
  </g>
</svg>
